# Blender 3.5.1
# www.blender.org
mtllib desk.mtl
o Desk
v 0.835276 0.000006 2.869287
v 0.835276 1.954931 2.869287
v 0.835276 0.000006 2.774084
v 0.835276 1.954931 2.774084
v 0.930479 0.000006 2.869287
v 0.930479 1.954931 2.869287
v 0.930479 0.000006 2.774084
v 0.930479 1.954931 2.774084
v 0.835276 1.858100 2.869287
v 0.835276 1.858100 2.774084
v 0.930479 1.858100 2.774084
v 0.930479 1.858100 2.869287
v 0.835276 1.341124 2.774084
v 0.835276 1.239781 2.774084
v 0.930479 1.341124 2.774084
v 0.930479 1.239781 2.774084
v 0.930479 1.341124 2.869287
v 0.930479 1.239781 2.869287
v 0.835276 1.239781 2.869287
v 0.835276 1.341124 2.869287
v 0.046301 1.239781 2.869287
v 0.046301 1.239781 2.774084
v 0.046301 1.341124 2.869287
v 0.046301 1.341124 2.774084
v -0.835276 0.000006 2.869287
v -0.835276 1.954931 2.869287
v -0.835276 0.000006 2.774084
v -0.835276 1.954931 2.774084
v -0.930479 0.000006 2.869287
v -0.930479 1.954931 2.869287
v -0.930479 0.000006 2.774084
v -0.930479 1.954931 2.774084
v -0.835276 1.858100 2.869287
v -0.835276 1.858100 2.774084
v -0.930479 1.858100 2.774084
v -0.930479 1.858100 2.869287
v 0.000000 1.239781 2.774084
v 0.000000 1.341124 2.774084
v 0.000000 1.341124 2.869287
v 0.000000 1.239781 2.869287
v -0.835276 1.341124 2.774084
v -0.835276 1.239781 2.774084
v -0.930479 1.341124 2.774084
v -0.930479 1.239781 2.774084
v -0.930479 1.341124 2.869287
v -0.930479 1.239781 2.869287
v -0.835276 1.239781 2.869287
v -0.835276 1.341124 2.869287
v -0.046301 1.239781 2.869287
v -0.046301 1.239781 2.774084
v -0.046301 1.341124 2.869287
v -0.046301 1.341124 2.774084
v 0.835276 0.000005 -2.869287
v 0.835276 1.954930 -2.869288
v 0.835276 0.000005 -2.774084
v 0.835276 1.954930 -2.774084
v 0.930479 0.000005 -2.869287
v 0.930479 1.954930 -2.869288
v 0.930479 0.000005 -2.774084
v 0.930479 1.954930 -2.774084
v 0.835276 1.858099 -2.869288
v 0.835276 1.858099 -2.774084
v 0.930479 1.858099 -2.774084
v 0.930479 1.858099 -2.869288
v 0.835276 1.954930 -0.000000
v 0.930479 1.954930 -0.000000
v 0.835276 1.858100 -0.000000
v 0.930479 1.858100 -0.000000
v 0.835276 1.341123 -2.774084
v 0.835276 1.239780 -2.774084
v 0.930479 1.341123 -2.774084
v 0.930479 1.239780 -2.774084
v 0.930479 1.341123 -2.869288
v 0.930479 1.239780 -2.869288
v 0.835276 1.239780 -2.869288
v 0.835276 1.341123 -2.869288
v 0.046301 1.239780 -2.869288
v 0.046301 1.239780 -2.774084
v 0.046301 1.341123 -2.869288
v 0.046301 1.341123 -2.774084
v 0.046301 1.239781 -0.000000
v 0.046301 1.341124 -0.000000
v 0.000000 1.954930 -0.000000
v 0.000000 2.045070 -0.000000
v -0.835276 0.000005 -2.869287
v -0.835276 1.954930 -2.869288
v -0.835276 0.000005 -2.774084
v -0.835276 1.954930 -2.774084
v -0.930479 0.000005 -2.869287
v -0.930479 1.954930 -2.869288
v -0.930479 0.000005 -2.774084
v -0.930479 1.954930 -2.774084
v -0.835276 1.858099 -2.869288
v -0.835276 1.858099 -2.774084
v -0.930479 1.858099 -2.774084
v -0.930479 1.858099 -2.869288
v -0.835276 1.954930 -0.000000
v -0.930479 1.954930 -0.000000
v -0.835276 1.858100 -0.000000
v -0.930479 1.858100 -0.000000
v 0.000000 1.239780 -2.774084
v 0.000000 1.341123 -2.774084
v 0.000000 1.341123 -2.869288
v 0.000000 1.239780 -2.869288
v -0.835276 1.341123 -2.774084
v -0.835276 1.239780 -2.774084
v -0.930479 1.341123 -2.774084
v -0.930479 1.239780 -2.774084
v -0.930479 1.341123 -2.869288
v -0.930479 1.239780 -2.869288
v -0.835276 1.239780 -2.869288
v -0.835276 1.341123 -2.869288
v -0.046301 1.239780 -2.869288
v -0.046301 1.239780 -2.774084
v -0.046301 1.341123 -2.869288
v -0.046301 1.341123 -2.774084
v -0.046301 1.239781 -0.000000
v 0.000000 1.239781 -0.000000
v 0.000000 1.341124 -0.000000
v -0.046301 1.341124 -0.000000
v 1.094751 1.954931 2.985320
v 1.109430 1.969610 2.985320
v 1.094751 1.969610 3.000000
v 1.094751 2.045070 2.985320
v 1.094751 2.030391 3.000000
v 1.109430 2.030391 2.985320
v 0.000000 1.969610 3.000000
v 0.000000 1.954931 2.985320
v 0.000000 2.045070 2.985320
v 0.000000 2.030391 3.000000
v -1.094751 1.954931 2.985320
v -1.094751 1.969610 3.000000
v -1.109430 1.969610 2.985320
v -1.094751 2.045070 2.985320
v -1.109430 2.030391 2.985320
v -1.094751 2.030391 3.000000
v 1.094751 1.954930 -2.985321
v 1.094751 1.969609 -3.000000
v 1.109430 1.969609 -2.985321
v 1.094751 2.045069 -2.985321
v 1.109430 2.030390 -2.985321
v 1.094751 2.030390 -3.000000
v 1.094751 1.954930 -0.000000
v 1.109430 1.969610 -0.000000
v 1.109430 2.030390 -0.000000
v 1.094751 2.045070 -0.000000
v 0.000000 1.954930 -2.985321
v 0.000000 1.969609 -3.000000
v 0.000000 2.030390 -3.000000
v 0.000000 2.045069 -2.985321
v -1.094751 1.954930 -2.985321
v -1.109430 1.969609 -2.985321
v -1.094751 1.969609 -3.000000
v -1.094751 2.045069 -2.985321
v -1.094751 2.030390 -3.000000
v -1.109430 2.030390 -2.985321
v -1.109430 1.969610 -0.000000
v -1.094751 1.954930 -0.000000
v -1.094751 2.045070 -0.000000
v -1.109430 2.030390 -0.000000
vn -0.0000 -1.0000 -0.0000
vn -1.0000 -0.0000 -0.0000
vn -0.0000 -0.0000 1.0000
vn -0.0000 1.0000 -0.0000
vn 1.0000 -0.0000 -0.0000
vn -0.0000 -0.0000 -1.0000
vn 0.5773 -0.5774 0.5773
vn 0.5774 0.5774 0.5773
vn -0.5773 -0.5774 0.5773
vn -0.5774 0.5774 0.5773
vn 0.5773 -0.5774 -0.5773
vn 0.5774 0.5774 -0.5773
vn -0.5773 -0.5774 -0.5773
vn -0.5774 0.5774 -0.5773
vn 0.7071 -0.7071 -0.0000
vn 0.7071 0.7071 -0.0000
vn 0.7071 -0.0000 0.7071
vn -0.0000 -0.7071 0.7071
vn -0.0000 0.7071 0.7071
vn -0.7071 -0.7071 -0.0000
vn -0.7071 0.7071 -0.0000
vn -0.7071 -0.0000 0.7071
vn 0.7071 -0.0000 -0.7071
vn -0.0000 -0.7071 -0.7071
vn -0.0000 0.7071 -0.7071
vn -0.7071 -0.0000 -0.7071
vt 0.443506 0.942395
vt 0.456716 0.955605
vt 0.456716 0.902764
vt 0.469926 0.902764
vt 0.469926 0.955605
vt 0.483137 0.942395
vt 0.443506 0.929184
vt 0.456716 0.915974
vt 0.483137 0.929184
vt 0.469926 0.915974
vt 0.456716 0.942395
vt 0.469926 0.942395
vt 0.456716 0.929184
vt 0.469926 0.929184
vt 0.469272 0.902764
vt 0.469272 0.955605
vt 0.469272 0.915974
vt 0.469272 0.929184
vt 0.469272 0.942395
vt 0.463337 0.915974
vt 0.462652 0.915974
vt 0.463337 0.929184
vt 0.462652 0.929184
vt 0.463337 0.942395
vt 0.462652 0.942395
vt 0.462652 0.902764
vt 0.462652 0.955605
vt 0.463337 0.902764
vt 0.463337 0.955605
vt 0.462652 0.902764
vt 0.462652 0.955605
vt 0.462652 0.915974
vt 0.463337 0.902764
vt 0.463337 0.955605
vt 0.463337 0.915974
vt 0.443506 0.942395
vt 0.456716 0.955605
vt 0.456716 0.902764
vt 0.469926 0.902764
vt 0.469926 0.955605
vt 0.483137 0.942395
vt 0.443506 0.929184
vt 0.456716 0.915974
vt 0.483137 0.929184
vt 0.469926 0.915974
vt 0.456716 0.942395
vt 0.469926 0.942395
vt 0.456716 0.929184
vt 0.469926 0.929184
vt 0.469272 0.902764
vt 0.469272 0.955605
vt 0.469272 0.915974
vt 0.469272 0.929184
vt 0.469272 0.942395
vt 0.462652 0.915974
vt 0.463337 0.915974
vt 0.463337 0.955605
vt 0.463337 0.902764
vt 0.462652 0.955605
vt 0.462652 0.902764
vt 0.463337 0.915974
vt 0.462652 0.915974
vt 0.463337 0.929184
vt 0.462652 0.929184
vt 0.463337 0.942395
vt 0.462652 0.942395
vt 0.462652 0.902764
vt 0.462652 0.955605
vt 0.463337 0.902764
vt 0.463337 0.955605
vt 0.462652 0.902764
vt 0.462652 0.955605
vt 0.462652 0.915974
vt 0.463337 0.902764
vt 0.463337 0.955605
vt 0.463337 0.915974
vt 0.443506 0.942395
vt 0.456716 0.955605
vt 0.456716 0.902764
vt 0.469926 0.902764
vt 0.469926 0.955605
vt 0.483137 0.942395
vt 0.443506 0.929184
vt 0.456716 0.915974
vt 0.483137 0.929184
vt 0.469926 0.915974
vt 0.456716 0.942395
vt 0.469926 0.942395
vt 0.456716 0.929184
vt 0.469926 0.929184
vt 0.469272 0.902764
vt 0.469272 0.955605
vt 0.469272 0.915974
vt 0.469272 0.929184
vt 0.469272 0.942395
vt 0.483137 0.929184
vt 0.469926 0.915974
vt 0.469926 0.929184
vt 0.469272 0.915974
vt 0.469272 0.929184
vt 0.463337 0.915974
vt 0.462652 0.915974
vt 0.463337 0.929184
vt 0.462652 0.929184
vt 0.463337 0.942395
vt 0.462652 0.942395
vt 0.462652 0.902764
vt 0.462652 0.955605
vt 0.463337 0.902764
vt 0.463337 0.955605
vt 0.462652 0.902764
vt 0.462652 0.955605
vt 0.462652 0.915974
vt 0.463337 0.902764
vt 0.463337 0.955605
vt 0.463337 0.915974
vt 0.462652 0.915974
vt 0.463337 0.915974
vt 0.045845 0.914560
vt 0.112071 0.914560
vt 0.443506 0.942395
vt 0.456716 0.955605
vt 0.456716 0.902764
vt 0.469926 0.902764
vt 0.469926 0.955605
vt 0.483137 0.942395
vt 0.443506 0.929184
vt 0.456716 0.915974
vt 0.483137 0.929184
vt 0.469926 0.915974
vt 0.456716 0.942395
vt 0.469926 0.942395
vt 0.456716 0.929184
vt 0.469926 0.929184
vt 0.469272 0.902764
vt 0.469272 0.955605
vt 0.469272 0.915974
vt 0.469272 0.929184
vt 0.469272 0.942395
vt 0.483137 0.929184
vt 0.469926 0.915974
vt 0.469926 0.929184
vt 0.469272 0.915974
vt 0.469272 0.929184
vt 0.462652 0.915974
vt 0.463337 0.915974
vt 0.463337 0.955605
vt 0.463337 0.902764
vt 0.462652 0.955605
vt 0.462652 0.902764
vt 0.463337 0.915974
vt 0.462652 0.915974
vt 0.463337 0.929184
vt 0.462652 0.929184
vt 0.463337 0.942395
vt 0.462652 0.942395
vt 0.462652 0.902764
vt 0.462652 0.955605
vt 0.463337 0.902764
vt 0.463337 0.955605
vt 0.462652 0.902764
vt 0.462652 0.955605
vt 0.462652 0.915974
vt 0.463337 0.902764
vt 0.463337 0.955605
vt 0.463337 0.915974
vt 0.462652 0.915974
vt 0.462652 0.915974
vt 0.463337 0.915974
vt 0.463337 0.915974
vt 0.067628 0.936527
vt 0.067920 0.936527
vt 0.071515 0.936527
vt 0.071515 0.936927
vt 0.067628 0.936635
vt 0.090288 0.936527
vt 0.086401 0.936927
vt 0.090288 0.936635
vt 0.089996 0.936527
vt 0.086401 0.936527
vt 0.045845 0.936635
vt 0.071515 0.958710
vt 0.067920 0.958710
vt 0.045845 0.936527
vt 0.112071 0.936527
vt 0.089996 0.958710
vt 0.112071 0.936635
vt 0.086401 0.958710
vt 0.067628 0.936527
vt 0.067920 0.936927
vt 0.067628 0.936635
vt 0.071515 0.936927
vt 0.067920 0.936527
vt 0.071515 0.936527
vt 0.090288 0.936527
vt 0.089996 0.936927
vt 0.089996 0.936527
vt 0.086401 0.936527
vt 0.090288 0.936635
vt 0.086401 0.936927
vt 0.067628 0.936527
vt 0.067920 0.936927
vt 0.067628 0.936635
vt 0.071515 0.936927
vt 0.067920 0.936527
vt 0.071515 0.936527
vt 0.090288 0.936527
vt 0.089996 0.936927
vt 0.089996 0.936527
vt 0.086401 0.936527
vt 0.090288 0.936635
vt 0.086401 0.936927
vt 0.067628 0.914560
vt 0.071515 0.914560
vt 0.086401 0.914560
vt 0.090288 0.914560
vt 0.067920 0.958710
vt 0.045845 0.936527
vt 0.071515 0.958710
vt 0.045845 0.936635
vt 0.086401 0.958710
vt 0.112071 0.936635
vt 0.089996 0.958710
vt 0.112071 0.936527
vt 0.067628 0.936527
vt 0.067920 0.936527
vt 0.071515 0.936527
vt 0.071515 0.936927
vt 0.067628 0.936635
vt 0.090288 0.936527
vt 0.086401 0.936927
vt 0.090288 0.936635
vt 0.089996 0.936527
vt 0.086401 0.936527
vt 0.071515 0.914560
vt 0.067628 0.914560
vt 0.090288 0.914560
vt 0.086401 0.914560
s 1
usemtl Desk
f 14/21/1 19/26/1 21/30/1 22/32/1
f 9/15/2 2/4/2 4/10/2 10/17/2
f 123/174/3 125/177/3 130/188/3 127/182/3
f 146/216/4 84/120/4 129/185/4 124/176/4
f 144/214/5 145/215/5 126/180/5 122/173/5
f 83/119/1 128/184/1 131/189/1 158/236/1
f 11/18/1 10/17/1 67/99/1 68/100/1
f 11/18/5 8/14/5 6/12/5 12/19/5
f 12/19/3 6/12/3 2/5/3 9/16/3
f 3/7/1 7/13/1 5/11/1 1/1/1
f 8/14/4 4/9/4 2/6/4 6/12/4
f 20/28/4 13/20/4 24/35/4 23/33/4
f 5/11/3 18/25/3 19/27/3 1/2/3
f 20/28/2 9/15/2 10/17/2 13/20/2
f 7/13/5 16/23/5 18/25/5 5/11/5
f 13/20/6 10/17/6 11/18/6 15/22/6
f 4/9/4 8/14/4 66/98/4 65/96/4
f 8/14/5 11/18/5 68/100/5 66/98/5
f 10/17/2 4/10/2 65/97/2 67/99/2
f 1/3/2 19/26/2 14/21/2 3/8/2
f 15/22/5 11/18/5 12/19/5 17/24/5
f 17/24/3 12/19/3 9/16/3 20/29/3
f 22/32/1 37/55/1 118/168/1 81/117/1
f 13/20/6 15/22/6 16/23/6 14/21/6
f 15/22/5 17/24/5 18/25/5 16/23/5
f 17/24/3 20/29/3 19/27/3 18/25/3
f 3/8/6 14/21/6 16/23/6 7/13/6
f 21/31/3 23/34/3 39/57/3 40/59/3
f 22/32/1 21/30/1 40/60/1 37/55/1
f 23/33/4 24/35/4 38/56/4 39/58/4
f 19/27/3 20/29/3 23/34/3 21/31/3
f 13/20/6 14/21/6 22/32/6 24/35/6
f 24/35/5 22/32/5 81/117/5 82/118/5
f 38/56/4 24/35/4 82/118/4 119/169/4
f 42/62/1 50/73/1 49/71/1 47/67/1
f 33/50/5 34/52/5 28/45/5 26/39/5
f 83/119/1 147/218/1 137/201/1 143/213/1
f 159/237/4 134/195/4 129/185/4 84/120/4
f 132/192/3 127/182/3 130/188/3 136/200/3
f 157/235/2 133/194/2 135/198/2 160/238/2
f 35/53/1 100/144/1 99/143/1 34/52/1
f 35/53/2 36/54/2 30/47/2 32/49/2
f 36/54/3 33/51/3 26/40/3 30/47/3
f 27/42/1 25/36/1 29/46/1 31/48/1
f 32/49/4 30/47/4 26/41/4 28/44/4
f 48/69/4 51/74/4 52/76/4 41/61/4
f 29/46/3 25/37/3 47/68/3 46/66/3
f 48/69/5 41/61/5 34/52/5 33/50/5
f 31/48/2 29/46/2 46/66/2 44/64/2
f 41/61/6 43/63/6 35/53/6 34/52/6
f 28/44/4 97/140/4 98/142/4 32/49/4
f 32/49/2 98/142/2 100/144/2 35/53/2
f 34/52/5 99/143/5 97/141/5 28/45/5
f 25/38/5 27/43/5 42/62/5 47/67/5
f 43/63/2 45/65/2 36/54/2 35/53/2
f 45/65/3 48/70/3 33/51/3 36/54/3
f 50/73/1 117/167/1 118/168/1 37/55/1
f 41/61/6 42/62/6 44/64/6 43/63/6
f 43/63/2 44/64/2 46/66/2 45/65/2
f 45/65/3 46/66/3 47/68/3 48/70/3
f 27/43/6 31/48/6 44/64/6 42/62/6
f 49/72/3 40/59/3 39/57/3 51/75/3
f 50/73/1 37/55/1 40/60/1 49/71/1
f 51/74/4 39/58/4 38/56/4 52/76/4
f 47/68/3 49/72/3 51/75/3 48/70/3
f 41/61/6 52/76/6 50/73/6 42/62/6
f 52/76/2 120/170/2 117/167/2 50/73/2
f 38/56/4 119/169/4 120/170/4 52/76/4
f 70/102/1 78/113/1 77/111/1 75/107/1
f 61/91/2 62/93/2 56/86/2 54/80/2
f 138/204/6 148/219/6 149/221/6 142/212/6
f 146/216/4 140/207/4 150/224/4 84/120/4
f 144/214/5 139/206/5 141/210/5 145/215/5
f 83/119/1 158/236/1 151/225/1 147/218/1
f 63/94/1 68/100/1 67/99/1 62/93/1
f 63/94/5 64/95/5 58/88/5 60/90/5
f 64/95/6 61/92/6 54/81/6 58/88/6
f 55/83/1 53/77/1 57/87/1 59/89/1
f 60/90/4 58/88/4 54/82/4 56/85/4
f 76/109/4 79/114/4 80/116/4 69/101/4
f 57/87/6 53/78/6 75/108/6 74/106/6
f 76/109/2 69/101/2 62/93/2 61/91/2
f 59/89/5 57/87/5 74/106/5 72/104/5
f 69/101/3 71/103/3 63/94/3 62/93/3
f 56/85/4 65/96/4 66/98/4 60/90/4
f 60/90/5 66/98/5 68/100/5 63/94/5
f 62/93/2 67/99/2 65/97/2 56/86/2
f 53/79/2 55/84/2 70/102/2 75/107/2
f 71/103/5 73/105/5 64/95/5 63/94/5
f 73/105/6 76/110/6 61/92/6 64/95/6
f 78/113/1 81/117/1 118/168/1 101/145/1
f 69/101/3 70/102/3 72/104/3 71/103/3
f 71/103/5 72/104/5 74/106/5 73/105/5
f 73/105/6 74/106/6 75/108/6 76/110/6
f 55/84/3 59/89/3 72/104/3 70/102/3
f 77/112/6 104/149/6 103/147/6 79/115/6
f 78/113/1 101/145/1 104/150/1 77/111/1
f 79/114/4 103/148/4 102/146/4 80/116/4
f 75/108/6 77/112/6 79/115/6 76/110/6
f 69/101/3 80/116/3 78/113/3 70/102/3
f 80/116/5 82/118/5 81/117/5 78/113/5
f 102/146/4 119/169/4 82/118/4 80/116/4
f 106/152/1 111/157/1 113/161/1 114/163/1
f 93/135/5 86/124/5 88/130/5 94/137/5
f 159/237/4 84/120/4 150/224/4 154/230/4
f 153/228/6 155/231/6 149/221/6 148/219/6
f 157/235/2 160/238/2 156/234/2 152/227/2
f 95/138/1 94/137/1 99/143/1 100/144/1
f 95/138/2 92/134/2 90/132/2 96/139/2
f 96/139/6 90/132/6 86/125/6 93/136/6
f 87/127/1 91/133/1 89/131/1 85/121/1
f 92/134/4 88/129/4 86/126/4 90/132/4
f 112/159/4 105/151/4 116/166/4 115/164/4
f 89/131/6 110/156/6 111/158/6 85/122/6
f 112/159/5 93/135/5 94/137/5 105/151/5
f 91/133/2 108/154/2 110/156/2 89/131/2
f 105/151/3 94/137/3 95/138/3 107/153/3
f 88/129/4 92/134/4 98/142/4 97/140/4
f 92/134/2 95/138/2 100/144/2 98/142/2
f 94/137/5 88/130/5 97/141/5 99/143/5
f 85/123/5 111/157/5 106/152/5 87/128/5
f 107/153/2 95/138/2 96/139/2 109/155/2
f 109/155/6 96/139/6 93/136/6 112/160/6
f 114/163/1 101/145/1 118/168/1 117/167/1
f 105/151/3 107/153/3 108/154/3 106/152/3
f 107/153/2 109/155/2 110/156/2 108/154/2
f 109/155/6 112/160/6 111/158/6 110/156/6
f 87/128/3 106/152/3 108/154/3 91/133/3
f 113/162/6 115/165/6 103/147/6 104/149/6
f 114/163/1 113/161/1 104/150/1 101/145/1
f 115/164/4 116/166/4 102/146/4 103/148/4
f 111/158/6 112/160/6 115/165/6 113/162/6
f 105/151/3 106/152/3 114/163/3 116/166/3
f 116/166/2 114/163/2 117/167/2 120/170/2
f 102/146/4 116/166/4 120/170/4 119/169/4
f 121/171/7 122/172/7 123/175/7
f 124/176/8 125/178/8 126/179/8
f 131/189/9 132/191/9 133/193/9
f 134/195/10 135/197/10 136/199/10
f 137/201/11 138/203/11 139/205/11
f 140/207/12 141/209/12 142/211/12
f 151/225/13 152/226/13 153/229/13
f 154/230/14 155/232/14 156/233/14
f 121/171/15 143/213/15 144/214/15 122/173/15
f 146/216/16 124/176/16 126/180/16 145/215/16
f 125/177/17 123/174/17 122/173/17 126/180/17
f 128/184/18 121/171/18 123/175/18 127/181/18
f 124/176/19 129/185/19 130/187/19 125/178/19
f 133/194/20 157/235/20 158/236/20 131/189/20
f 160/238/21 135/198/21 134/195/21 159/237/21
f 135/198/22 133/194/22 132/192/22 136/200/22
f 127/182/18 132/192/18 131/190/18 128/183/18
f 136/200/19 130/188/19 129/186/19 134/196/19
f 139/206/15 144/214/15 143/213/15 137/201/15
f 145/215/16 141/210/16 140/207/16 146/216/16
f 141/210/23 139/206/23 138/204/23 142/212/23
f 148/219/24 138/204/24 137/202/24 147/217/24
f 142/212/25 149/221/25 150/223/25 140/208/25
f 151/225/20 158/236/20 157/235/20 152/227/20
f 159/237/21 154/230/21 156/234/21 160/238/21
f 155/231/26 153/228/26 152/227/26 156/234/26
f 147/218/24 151/225/24 153/229/24 148/220/24
f 154/230/25 150/224/25 149/222/25 155/232/25
f 83/119/1 143/213/1 121/171/1 128/184/1
